# Blender v2.79 (sub 0) OBJ File: ''
# www.blender.org
mtllib worldpistol.mtl
o md5mesh.002
v 17.005129 47.712730 16.821005
v 28.390749 41.456860 15.849221
v 18.366549 50.397030 15.491447
v 29.752169 44.141163 14.519665
vt 1.000000 0.000000
vt 0.000000 1.000000
vt 0.000000 0.000000
vt 1.000000 1.000000
vn -0.2549 -0.3223 -0.9117
usemtl models/weapons/pistol/pistol_mflash2
s off
f 3/1/1 2/2/1 1/3/1
f 3/1/1 4/4/1 2/2/1
o md5mesh.001
v 23.109434 53.174095 18.324224
v 19.216362 45.498131 22.126190
v 16.818035 42.465717 13.548100
v 20.711107 50.141678 9.746133
vt 1.000000 0.000000
vt 0.000000 0.000000
vt 0.000000 1.000000
vt 1.000000 1.000000
vn -0.8740 0.4802 0.0746
usemtl models/weapons/pistol/pistol_mflash
s off
f 7/5/2 6/6/2 5/7/2
f 7/5/2 5/7/2 8/8/2
o md5mesh
v 15.874173 51.053211 16.726341
v 14.630241 48.412350 17.785744
v 16.211084 47.616196 17.657310
v 17.455017 50.257061 16.597908
v 15.951894 47.177448 17.186781
v 14.371051 47.973598 17.315212
v 18.567036 48.717007 15.355603
v 18.915554 49.293140 15.728571
v 18.846556 49.092495 16.468494
v 17.497364 47.419365 17.301929
v 17.247700 47.083981 16.307911
v 16.775520 46.802170 17.106533
v 10.467655 52.490818 17.094107
v 10.195445 51.650036 16.460396
v 10.478493 52.030262 17.587322
v 10.952019 53.123402 16.436409
v 10.329961 52.305847 16.545887
v 15.900515 51.250870 15.825306
v 17.481359 50.454720 15.696873
v 14.338441 48.020363 16.623962
v 15.520885 50.578625 15.319746
v 15.919284 47.224209 16.495529
v 17.101728 49.782475 15.191313
v 13.092055 48.931992 16.649937
v 14.081311 51.075562 15.538481
v 14.423164 51.671093 16.054583
v 14.424001 51.535912 16.902878
v 13.375101 49.312218 17.776863
v 17.247700 47.083981 16.307911
v 18.567036 48.717007 15.355603
v 10.893940 50.039013 16.828520
v 11.767174 52.393539 15.675028
v 12.109027 52.989071 16.191130
v 12.109863 52.853889 17.039425
v 11.176987 50.419243 17.955446
v 10.893940 50.039013 16.828520
v 13.092055 48.931992 16.649937
v 10.195445 51.650036 16.460396
v 10.329961 52.305847 16.545887
v 4.940732 48.184998 18.518269
v 7.460924 46.645069 18.404854
v 7.927948 47.272438 20.264275
v 5.407755 48.812366 20.377687
v 8.993776 51.008266 17.071594
v 9.237193 51.335258 18.040745
v 8.993776 51.008266 17.071594
v 8.959313 51.214500 18.456333
v 8.585696 50.712601 16.968800
v 8.639549 48.470764 17.764729
v 8.990522 48.942238 19.162102
v 7.460924 46.645069 18.404854
v 8.585696 50.712601 16.968800
v 8.639549 48.470764 17.764729
v 4.940732 48.184998 18.518269
v 7.460924 46.645069 18.404854
v 7.282038 50.556606 18.224224
v 4.940732 48.184998 18.518269
v 9.217902 51.871429 17.294376
v 11.595613 50.129169 17.285017
v 10.900781 50.538017 17.513205
v 11.573803 48.687084 17.968672
v 13.965044 48.620178 17.199032
v 13.514397 49.022358 17.368139
v 12.422208 48.309650 17.882927
v 12.362142 47.948681 17.828190
v 9.459344 49.261066 18.114475
v 11.492018 48.577221 17.643053
v 12.340424 48.199787 17.557308
v 13.432612 48.912495 17.042521
v 10.818996 50.428150 17.187586
v 11.492018 48.577221 17.643053
v 13.432612 48.912495 17.042521
v 12.340424 48.199787 17.557308
vt 0.756560 0.521125
vt 0.622281 0.521125
vt 0.622281 0.907523
vt 0.756560 0.907523
vt 0.752405 0.445039
vt 0.618126 0.445039
vt 0.890592 0.859907
vt 0.929876 0.968001
vt 1.000000 0.859907
vt 0.851884 0.580083
vt 0.961293 0.580083
vt 0.866799 0.434144
vt 0.220724 0.705874
vt 0.079462 0.791095
vt 0.207061 0.776802
vt 0.065799 0.862023
vt 0.210757 0.902815
vt 0.622281 1.000000
vt 0.756560 1.000000
vt 0.756560 0.521125
vt 0.622281 0.907523
vt 0.622281 0.521125
vt 0.756560 0.907523
vt 0.507185 0.554322
vt 0.507185 0.878896
vt 0.507185 0.961030
vt 0.507185 0.878896
vt 0.507185 0.554322
vt 0.851884 0.580083
vt 0.890592 0.859907
vt 0.320473 0.554322
vt 0.305722 0.897253
vt 0.305722 0.979386
vt 0.305722 0.897253
vt 0.320473 0.554322
vt 0.559812 0.404751
vt 0.404953 0.418664
vt 0.220724 0.705874
vt 0.207061 0.776802
vt 0.325426 0.121467
vt 0.343722 0.000000
vt 0.156893 0.001083
vt 0.138596 0.122550
vt 0.158167 0.551396
vt 0.158167 0.551396
vt 0.141261 0.505548
vt 0.016906 0.636617
vt 0.000000 0.590769
vt 0.313121 0.319836
vt 0.415351 0.288330
vt 0.442507 0.099229
vt 0.138596 0.122550
vt 0.313121 0.319836
vt 0.141261 0.505548
vt 0.325426 0.121467
vt 0.013258 0.168781
vt 0.032425 0.376665
vt 0.123365 0.652245
vt 0.693323 0.144792
vt 0.547807 0.390800
vt 0.633109 0.393503
vt 0.790334 0.152902
vt 0.862255 0.358359
vt 0.924142 0.342139
vt 0.802042 0.101538
vt 0.469194 0.077207
vt 0.709217 0.269881
vt 0.786517 0.275552
vt 0.843825 0.419210
vt 0.693323 0.144792
vt 0.547807 0.390800
vt 0.790334 0.152902
vt 0.862255 0.358359
vn -0.2146 -0.2749 -0.9372
vn 0.2586 0.6313 -0.7311
vn -0.8691 0.4919 0.0523
vn -0.7818 0.6234 -0.0140
vn -0.6305 0.7695 -0.1013
vn 0.9673 -0.1744 -0.1841
vn 0.7961 -0.6052 0.0042
vn -0.4535 -0.8677 -0.2036
vn 0.2480 0.3466 0.9046
vn 0.4520 0.8912 0.0389
vn 0.4520 0.8912 0.0390
vn -0.1930 -0.5178 0.8335
vn -0.1931 -0.5178 0.8335
vn 0.2657 0.3376 0.9030
vn 0.2573 0.3486 0.9013
vn -0.0736 -0.5725 0.8166
vn -0.0605 -0.6336 0.7713
vn -0.3318 -0.9194 -0.2114
vn -0.2920 -0.9446 -0.1502
vn -0.1968 -0.2838 -0.9385
vn -0.2052 -0.2727 -0.9400
vn 0.3997 0.5502 -0.7332
vn -0.2920 -0.2344 -0.9272
vn -0.2831 -0.2349 -0.9299
vn 0.1688 0.3846 0.9075
vn 0.1780 0.3844 0.9058
vn 0.4176 0.9077 0.0417
vn 0.1526 0.9002 0.4079
vn 0.2243 0.6480 -0.7278
vn -0.1675 0.4702 -0.8665
vn 0.2505 0.3520 0.9018
vn 0.2519 0.3488 0.9027
vn -0.2616 -0.5420 0.7986
vn -0.4963 -0.8574 -0.1361
vn -0.2119 -0.2693 -0.9395
vn -0.2106 -0.2725 -0.9388
vn 0.3910 0.8379 -0.3809
vn 0.2916 0.3314 0.8973
vn 0.5157 -0.2139 0.8296
vn -0.1704 -0.2891 -0.9420
vn 0.1372 -0.7225 -0.6777
vn 0.4683 0.7949 -0.3858
vn 0.2829 0.3286 0.9011
vn -0.1794 -0.2924 -0.9393
vn 0.5586 -0.8182 0.1358
vn -0.8359 0.5484 0.0249
vn 0.1634 0.3336 0.9285
vn 0.1783 0.2211 0.9588
vn -0.2819 -0.3971 -0.8734
vn -0.2985 -0.2868 -0.9103
vn 0.1483 -0.7651 -0.6266
vn -0.1464 -0.9769 -0.1555
vn 0.0764 -0.6777 0.7314
vn 0.5100 -0.2791 0.8136
vn -0.0277 -0.2939 0.9554
vn -0.3902 -0.7809 -0.4878
vn 0.7140 -0.6979 0.0561
vn 0.6172 -0.5381 0.5740
vn 0.3283 -0.9169 0.2269
vn 0.3835 -0.8520 -0.3563
vn 0.1539 0.3339 0.9300
vn -0.3076 -0.2861 -0.9075
vn 0.5905 0.8066 0.0267
vn 0.6732 0.6328 -0.3826
vn 0.0480 -0.9500 0.3085
vn 0.2320 -0.7872 -0.5715
vn 0.9633 -0.2056 -0.1726
vn 0.5644 -0.3406 0.7520
vn -0.5994 0.7919 -0.1167
vn -0.3603 -0.4221 0.8319
vn -0.3515 -0.3496 0.8685
vn -0.6342 -0.7293 -0.2569
vn -0.6159 -0.7655 -0.1859
vn -0.4791 -0.3701 -0.7959
vn -0.3950 -0.0570 -0.9169
vn -0.4308 0.2050 -0.8788
vn -0.0309 0.1549 -0.9875
vn -0.0240 0.1620 -0.9865
vn -0.1428 -0.2851 -0.9478
vn -0.9720 0.1125 0.2062
vn -0.3445 -0.8599 0.3767
vn 0.5828 -0.8030 0.1246
vn 0.5827 -0.8030 0.1246
vn -0.0348 0.2269 0.9733
vn 0.0469 0.5366 0.8425
vn -0.0390 0.7313 0.6810
vn 0.3716 0.6955 0.6150
vn 0.3181 0.3340 0.8873
vn 0.3763 0.6997 0.6073
usemtl models/weapons/pistol/w_pistol
s off
f 11/9/3 10/10/3 9/11/3
f 11/9/3 9/11/3 12/12/3
f 13/13/4 10/10/4 11/9/4
f 13/13/4 14/14/4 10/10/4
f 17/15/5 16/16/5 15/17/5
f 18/18/6 17/15/6 15/17/6
f 18/18/6 15/17/6 19/19/6
f 20/20/7 18/18/7 19/19/7
f 23/21/8 22/22/8 21/23/8
f 21/23/9 25/24/9 24/25/9
f 22/22/8 25/24/8 21/23/8
f 12/12/10 9/11/10 26/26/10
f 12/12/10 26/26/10 27/27/10
f 30/28/11 29/29/11 28/30/11
f 30/28/11 31/31/11 29/29/11
f 13/13/12 30/28/12 28/30/12
f 13/13/13 28/30/13 14/14/13
f 31/31/14 26/26/14 29/29/14
f 31/31/15 27/27/15 26/26/15
f 28/30/16 29/29/16 32/32/16
f 32/32/17 29/29/17 33/33/17
f 33/33/18 29/29/18 26/26/18
f 33/33/19 26/26/19 34/34/19
f 35/35/20 26/26/20 9/11/20
f 35/35/21 34/34/21 26/26/21
f 10/10/22 36/36/22 9/11/22
f 36/36/23 35/35/23 9/11/23
f 14/14/24 36/36/24 10/10/24
f 11/9/25 12/12/25 18/18/25
f 18/18/26 12/12/26 17/15/26
f 30/28/27 37/37/27 31/31/27
f 37/37/28 38/38/28 31/31/28
f 13/13/29 20/20/29 30/28/29
f 20/20/30 37/37/30 30/28/30
f 13/13/31 11/9/31 20/20/31
f 20/20/32 11/9/32 18/18/32
f 32/32/33 33/33/33 39/39/33
f 39/39/34 33/33/34 40/40/34
f 33/33/35 34/34/35 40/40/35
f 40/40/35 34/34/35 41/41/35
f 35/35/36 42/42/36 34/34/36
f 42/42/36 41/41/36 34/34/36
f 36/36/37 43/43/37 35/35/37
f 43/43/38 42/42/38 35/35/38
f 36/36/39 45/44/39 44/45/39
f 36/36/39 44/45/39 43/43/39
f 39/39/40 40/40/40 46/46/40
f 46/46/41 40/40/41 47/47/41
f 43/43/42 23/21/42 42/42/42
f 23/21/43 21/23/43 42/42/43
f 50/48/44 49/49/44 48/50/44
f 50/48/44 48/50/44 51/51/44
f 52/52/45 39/39/45 46/46/45
f 53/53/46 23/21/46 43/43/46
f 55/54/47 54/55/47 53/53/47
f 55/54/47 56/56/47 54/55/47
f 50/48/48 58/57/48 57/58/48
f 50/48/48 57/58/48 59/59/48
f 62/60/49 61/61/49 60/62/49
f 63/63/50 61/61/50 62/60/50
f 50/48/51 51/51/51 58/57/51
f 51/51/52 55/54/52 58/57/52
f 21/23/53 24/25/53 42/42/53
f 42/42/54 24/25/54 41/41/54
f 40/40/55 41/41/55 24/25/55
f 47/47/56 40/40/56 24/25/56
f 60/62/57 39/39/57 52/52/57
f 55/54/58 53/53/58 43/43/58
f 51/51/59 65/64/59 64/65/59
f 62/60/60 60/62/60 64/65/60
f 64/65/61 56/56/61 55/54/61
f 51/51/62 64/65/62 55/54/62
f 61/61/63 39/39/63 60/62/63
f 58/57/64 55/54/64 43/43/64
f 14/14/65 28/30/65 32/32/65
f 14/14/66 45/44/66 36/36/66
f 66/66/67 22/22/67 23/21/67
f 53/53/68 66/66/68 23/21/68
f 53/53/69 54/55/69 66/66/69
f 52/52/70 46/46/70 66/66/70
f 57/58/71 43/43/71 44/45/71
f 58/57/71 43/43/71 57/58/71
f 31/31/72 16/16/72 27/27/72
f 38/38/73 16/16/73 31/31/73
f 17/15/74 12/12/74 16/16/74
f 12/12/75 27/27/75 16/16/75
f 69/67/76 68/68/76 67/69/76
f 72/70/77 71/71/77 70/72/77
f 73/73/78 72/70/78 70/72/78
f 73/73/79 69/67/79 72/70/79
f 74/74/80 69/67/80 73/73/80
f 74/74/81 68/68/81 69/67/81
f 69/67/82 67/69/82 75/75/82
f 69/67/83 75/75/83 72/70/83
f 75/75/83 76/76/83 72/70/83
f 72/70/84 76/76/84 71/71/84
f 76/76/85 77/77/85 71/71/85
f 79/78/86 67/69/86 78/79/86
f 81/80/87 70/72/87 80/81/87
f 73/73/88 70/72/88 81/80/88
f 73/73/89 81/80/89 79/78/89
f 74/74/90 79/78/90 78/79/90
f 74/74/91 73/73/91 79/78/91
